<svg width="200" height="200" xmlns="http://www.w3.org/2000/svg" xmlns:svg="http://www.w3.org/2000/svg">
    <g class="layer">
        <title>Layer 1</title>
        <g id="fond"/>
        <g id="compacte"/>
        <g id="rectangle"/>
        <g id="carré">
            <g id="svg_1">
                <g id="svg_2">
                    <path id="svg_3" d="m190.00911,100.05374c0,49.679 -40.26957,89.95177 -89.94696,89.95177c-49.67419,0 -89.94215,-40.27277 -89.94215,-89.95177c0,-49.67098 40.26636,-89.93894 89.94215,-89.93894c49.6774,0 89.94696,40.26796 89.94696,89.93894z"/>
                    <path id="svg_4" d="m139.39029,43.39344c-9.13679,0.31274 -17.11244,5.35666 -23.05127,12.31711c-6.57554,7.64206 -10.94426,16.69706 -14.09892,25.94932c-5.63572,-4.62212 -9.98039,-10.60266 -19.02737,-13.204c-6.99092,-2.00955 -14.33147,-1.18199 -21.08342,3.84749c-3.19475,2.38804 -5.39996,5.99497 -6.44724,9.39661c-2.71361,8.81764 2.85154,16.673 5.37911,19.48765l5.52826,5.91959c1.13709,1.16275 3.88438,4.1907 2.5404,8.53056c-1.44341,4.72637 -7.13847,7.77838 -12.97787,5.98374c-2.60937,-0.80029 -6.35582,-2.74248 -5.51543,-5.47374c0.34481,-1.12105 1.14671,-1.96464 1.57813,-2.9205c0.39132,-0.83557 0.58218,-1.45464 0.70246,-1.82832c1.06652,-3.47862 -0.39293,-8.00933 -4.12174,-9.16245c-3.48183,-1.06812 -7.04224,-0.22132 -8.42311,4.25806c-1.5669,5.09043 0.87086,14.32986 13.9225,18.34896c15.29214,4.70712 28.22189,-3.62296 30.05823,-14.47581c1.15633,-6.79847 -1.91653,-11.85522 -7.53942,-18.34896l-4.58524,-5.07279c-2.77456,-2.77295 -3.72721,-7.50093 -0.85482,-11.13351c2.42493,-3.06645 5.87629,-4.37193 11.53285,-2.8355c8.25952,2.23889 11.93701,7.96923 18.07632,12.59136c-2.53078,8.31886 -4.1907,16.66659 -5.68864,24.15147l-0.92058,5.58279c-4.38797,23.0176 -7.73989,35.66027 -16.44847,42.91742c-1.75455,1.24935 -4.26287,3.11616 -8.0414,3.25088c-1.98549,0.05934 -2.6254,-1.30549 -2.65267,-1.9021c-0.0433,-1.38728 1.12746,-2.02719 1.9053,-2.64946c1.16596,-0.6351 2.92531,-1.68879 2.80343,-5.06156c-0.1251,-3.98381 -3.4273,-7.43998 -8.19697,-7.28281c-3.57485,0.12028 -9.02132,3.48183 -8.81603,9.64038c0.2101,6.36224 6.1377,11.1271 15.07723,10.82558c4.77769,-0.16359 15.44931,-2.10417 25.96215,-14.60251c12.23852,-14.32986 15.66261,-30.75267 18.2383,-42.77469l2.8756,-15.87271c1.59096,0.19085 3.3022,0.32076 5.15939,0.36566c15.24242,0.32236 22.86363,-7.56989 22.9791,-13.31467c0.07859,-3.47541 -2.27738,-6.8995 -5.57959,-6.81771c-2.35918,0.06576 -5.32458,1.63907 -6.03346,4.90279c-0.69925,3.19956 4.84826,6.09119 0.51321,8.90585c-3.07928,1.99191 -8.59792,3.39362 -16.37309,2.25653l1.41294,-7.81367c2.88522,-14.81581 6.44403,-33.03808 19.94473,-33.48393c0.98633,-0.04651 4.58203,0.0417 4.66703,2.42493c0.02245,0.79067 -0.17481,0.99916 -1.10501,2.81786c-0.94944,1.41775 -1.30549,2.63022 -1.25898,4.01589c0.1283,3.77853 3.0039,6.26761 7.17055,6.12327c5.56996,-0.18604 7.16734,-5.60685 7.07592,-8.39263c-0.23415,-6.55148 -7.13526,-10.68926 -16.26243,-10.38775z" fill="#FFFFFF"/>
                </g>
            </g>
        </g>
    </g>
</svg>